<?xml version="1.0" standalone="no"?>
<!DOCTYPE svg PUBLIC "-//W3C//DTD SVG 20010904//EN"
 "http://www.w3.org/TR/2001/REC-SVG-20010904/DTD/svg10.dtd">
<svg version="1.0" xmlns="http://www.w3.org/2000/svg"
 width="512.000000pt" height="512.000000pt" viewBox="0 0 512.000000 512.000000"
 preserveAspectRatio="xMidYMid meet">

<g transform="translate(0.000000,512.000000) scale(0.100000,-0.100000)"
fill="#000000" stroke="none">
<path d="M2618 5088 l-58 -10 0 -794 c0 -437 2 -794 5 -794 3 0 24 9 46 20 59
31 216 80 253 80 40 0 94 -29 121 -64 19 -27 20 -44 25 -561 3 -293 8 -536 11
-540 4 -3 130 39 280 94 151 55 387 141 524 191 138 50 282 107 320 125 157
76 294 213 371 370 66 136 86 223 86 386 l0 136 34 12 c56 20 178 105 239 167
109 111 192 265 226 419 20 92 15 274 -10 370 -22 85 -40 116 -85 149 -57 43
-60 42 -1041 -316 -506 -185 -928 -339 -937 -343 -17 -7 -18 7 -18 198 l0 205
118 31 c157 43 198 64 222 112 25 49 25 90 0 139 -22 44 -80 80 -127 80 -15 0
-66 -12 -112 -25 -47 -14 -90 -25 -96 -25 -7 0 -17 17 -23 38 -16 51 -73 116
-125 141 -48 23 -144 27 -249 9z"/>
<path d="M147 4855 c-20 -7 -44 -19 -53 -26 -74 -61 -110 -356 -64 -535 61
-240 215 -431 438 -543 53 -27 62 -35 57 -52 -12 -37 -6 -223 9 -294 51 -244
210 -451 432 -564 62 -31 848 -321 871 -321 7 0 13 10 13 23 0 89 125 383 214
504 l46 63 0 533 0 533 -937 341 c-516 187 -949 343 -963 346 -14 3 -42 0 -63
-8z"/>
</g>
</svg>
