<svg version="1.1" id="Layer_1" xmlns="http://www.w3.org/2000/svg" xmlns:xlink="http://www.w3.org/1999/xlink" x="0px" y="0px"
	 width="100%" viewBox="0 0 512 512" enable-background="new 0 0 512 512" xml:space="preserve">
<path fill="#FFE645" opacity="1.000000" stroke="none" 
	d="
M257.000000,513.000000 
	C249.645752,513.000000 242.291504,513.000000 234.194916,512.713074 
	C231.814133,512.257690 230.155243,512.200745 228.540283,511.904449 
	C191.690811,505.143066 161.226257,487.505798 137.738861,458.207458 
	C125.267357,442.650452 116.052277,425.293213 110.551201,406.092163 
	C105.012360,386.759308 101.503418,367.157349 103.975418,346.477417 
	C104.502731,342.308319 104.836990,338.539337 105.567184,334.848663 
	C108.920700,317.898376 116.583237,302.928558 127.785019,289.970642 
	C131.629959,285.522949 136.778168,280.606506 142.125717,279.385834 
	C153.204147,276.856934 158.261215,281.879822 161.748840,292.437836 
	C164.614716,301.113647 166.627975,310.139221 170.241440,318.480255 
	C173.631989,326.306671 178.625153,333.438812 182.972198,341.181763 
	C183.260071,341.624512 183.488892,341.761932 183.717697,341.899384 
	C183.812408,341.460480 183.989944,341.021545 183.989975,340.582642 
	C183.991287,319.020111 183.977356,297.457550 183.976898,275.443665 
	C184.285339,270.659607 184.582001,266.326874 184.945862,261.598206 
	C185.315796,260.437622 185.764542,259.697968 185.899948,258.904816 
	C189.541611,237.573822 199.048874,218.946457 212.372284,201.783936 
	C225.053986,186.567551 239.440842,173.921707 256.990967,165.575195 
	C256.995544,281.691162 256.997772,397.345581 257.000000,513.000000 
z"/>
<path fill="#FFC12E" opacity="1.000000" stroke="none" 
	d="
M257.467590,513.000000 
	C256.997772,397.345581 256.995544,281.691162 257.021362,165.340622 
	C257.049438,164.644516 257.079926,164.174103 257.448486,164.120697 
	C265.057739,161.352829 272.266174,158.547958 279.546539,155.944397 
	C291.441345,151.690628 297.545502,156.843307 301.926208,165.558975 
	C302.055908,176.732788 302.154816,187.444977 302.169067,198.606339 
	C302.056244,221.897232 302.013275,244.738983 302.041351,267.580627 
	C302.042816,268.783356 302.646515,269.985382 302.978363,271.604919 
	C304.341339,279.494537 305.127716,287.126526 307.172272,294.405121 
	C311.046631,308.197845 315.776398,321.729614 327.112274,331.583710 
	C330.860229,334.841736 335.073730,337.616943 338.536621,341.141266 
	C356.797058,359.725677 368.992676,381.351990 372.219360,407.688812 
	C374.143616,423.394928 372.816376,438.429840 366.077026,452.844391 
	C363.716705,457.892853 361.346100,462.936523 358.683044,468.141541 
	C351.981262,474.288879 346.042938,480.897614 339.073944,486.134827 
	C325.010193,496.703644 309.202911,504.025757 292.124329,508.453796 
	C286.095276,510.016998 280.042145,511.487274 274.000000,513.000000 
	C268.645081,513.000000 263.290131,513.000000 257.467590,513.000000 
z"/>
<path fill="#FFFFFF" opacity="1.000000" stroke="none" 
	d="
M182.913116,340.876465 
	C178.625153,333.438812 173.631989,326.306671 170.241440,318.480255 
	C166.627975,310.139221 164.614716,301.113647 161.748840,292.437836 
	C158.261215,281.879822 153.204147,276.856934 142.125717,279.385834 
	C136.778168,280.606506 131.629959,285.522949 127.785019,289.970642 
	C116.583237,302.928558 108.920700,317.898376 105.567184,334.848663 
	C104.836990,338.539337 104.502731,342.308319 103.585342,346.488525 
	C101.790138,340.873840 99.825096,334.877228 99.121758,328.736145 
	C97.718506,316.483917 97.202698,304.132751 95.963760,291.858429 
	C94.246231,274.842682 86.256523,261.036926 73.404655,249.981354 
	C68.478065,245.743347 59.385601,245.194916 54.066006,248.490112 
	C49.467434,251.338684 47.335907,257.998352 47.813877,264.295685 
	C48.262154,270.201843 48.966461,276.656036 47.146702,282.056488 
	C42.412033,296.107452 36.764259,309.894989 30.734482,323.455811 
	C19.376886,348.998749 16.925486,375.124512 23.601482,402.260864 
	C31.285702,433.495422 49.410252,457.863129 74.130043,477.316742 
	C94.012505,492.963470 116.882469,503.182831 141.587601,509.013763 
	C147.698273,510.456024 153.861130,511.677216 160.000000,513.000000 
	C107.038994,513.000000 54.077984,513.000000 1.000000,513.000000 
	C1.000000,367.979126 1.000000,222.958221 1.359914,77.642578 
	C3.327445,88.421310 7.027470,98.721893 13.033826,108.186836 
	C22.756926,123.508713 35.624924,134.992538 53.001526,141.476837 
	C52.687141,144.999664 52.195934,148.076309 52.025360,151.170624 
	C51.376385,162.943573 53.494789,174.208893 57.640152,185.274246 
	C64.944771,204.772705 77.552658,220.478653 96.218712,228.558960 
	C125.171150,241.092087 155.267365,250.983017 184.878662,261.994141 
	C184.582001,266.326874 184.285339,270.659607 183.625488,275.700439 
	C183.174316,278.217896 183.013748,280.027008 183.009491,281.836548 
	C182.963272,301.516479 182.941528,321.196472 182.913116,340.876465 
z"/>
<path fill="#FFFFFF" opacity="1.000000" stroke="none" 
	d="
M513.000000,77.000000 
	C513.000000,222.226608 513.000000,367.453217 513.000000,513.000000 
	C459.979523,513.000000 406.958435,513.000000 353.653931,512.623047 
	C361.987885,510.499512 370.725647,509.202026 379.201385,506.927917 
	C413.894012,497.619690 443.129333,479.540710 465.848419,451.512848 
	C477.595917,437.020325 485.975433,420.703766 490.124695,402.429291 
	C491.490936,396.412079 492.095459,390.221924 493.387360,383.879456 
	C493.757660,381.440826 493.788879,379.233551 493.885468,376.570068 
	C493.905701,372.736389 493.860535,369.358948 493.891998,365.566772 
	C493.661469,363.064819 493.354370,360.977509 493.022705,358.463135 
	C491.486420,351.029755 490.777954,343.722839 488.292633,337.080780 
	C483.384857,323.964661 477.350433,311.274994 472.051941,298.298706 
	C467.492157,287.131531 462.631317,276.027527 465.815216,263.302399 
	C466.525726,260.462646 465.730652,256.582550 464.237335,253.979706 
	C459.790039,246.228043 448.153625,244.071930 441.133270,249.630554 
	C437.393982,252.591263 434.189850,256.311920 431.091034,259.982391 
	C419.560059,273.640594 417.638855,290.446411 416.022888,307.285400 
	C414.908478,318.897980 414.647034,330.633148 412.803406,342.120789 
	C411.554626,349.902252 408.459778,357.475433 402.018158,362.487976 
	C400.324493,350.082672 399.479187,337.937836 396.764771,326.226196 
	C392.821136,309.210938 383.644135,294.414764 374.329132,279.815063 
	C368.519165,270.708954 362.796509,261.520660 363.391510,249.921738 
	C366.097321,248.816483 368.450836,247.827957 370.845306,246.951355 
	C384.753418,241.859711 398.845123,237.218201 412.536072,231.599258 
	C425.845398,226.136963 436.026794,216.526749 445.113037,205.383636 
	C451.693298,197.313843 456.354614,188.246384 458.612305,178.590393 
	C461.383453,166.738525 462.478912,154.342651 460.403503,141.914154 
	C461.447632,141.392685 462.127655,140.940430 462.868225,140.634857 
	C481.570892,132.917892 495.555237,119.910568 504.377197,101.865562 
	C508.202118,94.041809 510.182037,85.316055 513.000000,77.000000 
z"/>
<path fill="#FFFFFF" opacity="1.000000" stroke="none" 
	d="
M1.000000,51.000000 
	C1.000000,34.345249 1.000000,17.690495 1.000002,1.042347 
	C171.666672,1.048952 342.333344,1.048952 513.000000,1.048952 
	C513.000000,17.419497 513.000000,33.741089 512.628723,50.374325 
	C510.809723,45.045773 510.121490,39.054024 507.715942,33.857182 
	C504.908081,27.791084 498.088013,23.075867 487.590546,26.795027 
	C475.704559,31.006123 463.818207,35.217640 451.968201,39.528400 
	C416.264069,52.516785 380.585693,65.576057 344.880005,78.560150 
	C330.621063,83.745293 316.316925,88.806084 302.019348,93.459595 
	C302.024139,80.373833 302.042908,67.751930 302.451355,55.066879 
	C308.703979,53.334282 314.575409,51.693970 320.428101,49.989174 
	C331.751007,46.691010 337.795410,44.278713 338.337158,33.181232 
	C338.699951,25.750183 333.155701,18.610426 325.647522,17.930016 
	C317.194916,17.164022 309.811615,20.799002 302.001221,22.499634 
	C299.488495,11.381814 293.058777,3.560819 282.164856,2.421072 
	C273.933716,1.559911 265.362305,3.950717 256.536804,4.935194 
	C231.797562,8.585008 212.149002,31.745867 212.012131,55.588394 
	C211.938782,68.365799 211.989944,81.143913 211.603333,93.943573 
	C182.497726,83.485657 153.765701,73.027679 125.052734,62.517685 
	C108.552261,56.477913 92.110008,50.278381 75.591423,44.289021 
	C59.228130,38.355961 42.780407,32.655926 26.411240,26.738804 
	C16.516418,23.162027 7.179044,28.037390 4.932295,37.681267 
	C3.883766,42.181938 2.326615,46.564114 1.000000,51.000000 
z"/>
<path fill="#FF5C42" opacity="1.000000" stroke="none" 
	d="
M1.000000,51.468651 
	C2.326615,46.564114 3.883766,42.181938 4.932295,37.681267 
	C7.179044,28.037390 16.516418,23.162027 26.411240,26.738804 
	C42.780407,32.655926 59.228130,38.355961 75.591423,44.289021 
	C92.110008,50.278381 108.552261,56.477913 125.052734,62.517685 
	C153.765701,73.027679 182.497726,83.485657 211.608170,94.417732 
	C211.933517,129.296951 211.872452,163.723862 211.425446,198.118866 
	C204.157547,195.716171 197.244049,193.432678 190.399582,190.958176 
	C170.129227,183.629822 149.890121,176.215073 129.631317,168.854660 
	C104.082047,159.572098 78.525406,150.309799 52.971943,141.038757 
	C35.624924,134.992538 22.756926,123.508713 13.033826,108.186836 
	C7.027470,98.721893 3.327445,88.421310 1.359914,77.173920 
	C1.000000,68.645767 1.000000,60.291534 1.000000,51.468651 
z"/>
<path fill="#D9311C" opacity="1.000000" stroke="none" 
	d="
M302.033356,93.923470 
	C316.316925,88.806084 330.621063,83.745293 344.880005,78.560150 
	C380.585693,65.576057 416.264069,52.516785 451.968201,39.528400 
	C463.818207,35.217640 475.704559,31.006123 487.590546,26.795027 
	C498.088013,23.075867 504.908081,27.791084 507.715942,33.857182 
	C510.121490,39.054024 510.809723,45.045773 512.628723,50.842983 
	C513.000000,59.354233 513.000000,67.708466 513.000000,76.531349 
	C510.182037,85.316055 508.202118,94.041809 504.377197,101.865562 
	C495.555237,119.910568 481.570892,132.917892 462.868225,140.634857 
	C462.127655,140.940430 461.447632,141.392685 460.008820,141.898682 
	C457.528259,142.509354 455.738129,142.886978 454.034607,143.503891 
	C439.829590,148.648285 425.640350,153.836197 411.446716,159.012054 
	C383.675781,169.138947 355.921631,179.312363 328.124359,189.366486 
	C319.561188,192.463730 310.880554,195.236069 302.253693,198.157166 
	C302.154816,187.444977 302.055908,176.732788 301.965820,165.082764 
	C301.994171,140.737778 302.013763,117.330620 302.033356,93.923470 
z"/>
<path fill="#F2860A" opacity="1.000000" stroke="none" 
	d="
M402.031097,362.942108 
	C408.459778,357.475433 411.554626,349.902252 412.803406,342.120789 
	C414.647034,330.633148 414.908478,318.897980 416.022888,307.285400 
	C417.638855,290.446411 419.560059,273.640594 431.091034,259.982391 
	C434.189850,256.311920 437.393982,252.591263 441.133270,249.630554 
	C448.153625,244.071930 459.790039,246.228043 464.237335,253.979706 
	C465.730652,256.582550 466.525726,260.462646 465.815216,263.302399 
	C462.631317,276.027527 467.492157,287.131531 472.051941,298.298706 
	C477.350433,311.274994 483.384857,323.964661 488.292633,337.080780 
	C490.777954,343.722839 491.486420,351.029755 493.007019,358.882751 
	C493.282349,361.813416 493.548859,363.897461 493.815369,365.981476 
	C493.860535,369.358948 493.905701,372.736389 493.634705,376.870056 
	C493.228455,379.787750 493.138397,381.949310 493.048279,384.110840 
	C492.095459,390.221924 491.490936,396.412079 490.124695,402.429291 
	C485.975433,420.703766 477.595917,437.020325 465.848419,451.512848 
	C443.129333,479.540710 413.894012,497.619690 379.201385,506.927917 
	C370.725647,509.202026 361.987885,510.499512 353.185303,512.623047 
	C326.979095,513.000000 300.958221,513.000000 274.468658,513.000000 
	C280.042145,511.487274 286.095276,510.016998 292.124329,508.453796 
	C309.202911,504.025757 325.010193,496.703644 339.073944,486.134827 
	C346.042938,480.897614 351.981262,474.288879 358.990112,468.010010 
	C363.726471,462.973022 368.162659,458.455566 371.937439,453.440277 
	C387.317749,433.005402 396.668243,410.028198 399.967010,384.659119 
	C400.904114,377.452484 401.356445,370.182861 402.031097,362.942108 
z"/>
<path fill="#FFC12E" opacity="1.000000" stroke="none" 
	d="
M160.468658,513.000000 
	C153.861130,511.677216 147.698273,510.456024 141.587601,509.013763 
	C116.882469,503.182831 94.012505,492.963470 74.130043,477.316742 
	C49.410252,457.863129 31.285702,433.495422 23.601482,402.260864 
	C16.925486,375.124512 19.376886,348.998749 30.734482,323.455811 
	C36.764259,309.894989 42.412033,296.107452 47.146702,282.056488 
	C48.966461,276.656036 48.262154,270.201843 47.813877,264.295685 
	C47.335907,257.998352 49.467434,251.338684 54.066006,248.490112 
	C59.385601,245.194916 68.478065,245.743347 73.404655,249.981354 
	C86.256523,261.036926 94.246231,274.842682 95.963760,291.858429 
	C97.202698,304.132751 97.718506,316.483917 99.121758,328.736145 
	C99.825096,334.877228 101.790138,340.873840 103.574631,346.924683 
	C101.503418,367.157349 105.012360,386.759308 110.551201,406.092163 
	C116.052277,425.293213 125.267357,442.650452 137.738861,458.207458 
	C161.226257,487.505798 191.690811,505.143066 228.540283,511.904449 
	C230.155243,512.200745 231.814133,512.257690 233.726288,512.713074 
	C209.645767,513.000000 185.291550,513.000000 160.468658,513.000000 
z"/>
<path fill="#D9311C" opacity="1.000000" stroke="none" 
	d="
M53.001526,141.476837 
	C78.525406,150.309799 104.082047,159.572098 129.631317,168.854660 
	C149.890121,176.215073 170.129227,183.629822 190.399582,190.958176 
	C197.244049,193.432678 204.157547,195.716171 211.478500,198.494583 
	C211.974716,199.914948 212.031937,200.927658 212.089157,201.940384 
	C199.048874,218.946457 189.541611,237.573822 185.899948,258.904816 
	C185.764542,259.697968 185.315796,260.437622 184.945862,261.598206 
	C155.267365,250.983017 125.171150,241.092087 96.218712,228.558960 
	C77.552658,220.478653 64.944771,204.772705 57.640152,185.274246 
	C53.494789,174.208893 51.376385,162.943573 52.025360,151.170624 
	C52.195934,148.076309 52.687141,144.999664 53.001526,141.476837 
z"/>
<path fill="#FF826E" opacity="1.000000" stroke="none" 
	d="
M212.372284,201.783936 
	C212.031937,200.927658 211.974716,199.914948 211.864441,198.526489 
	C211.872452,163.723862 211.933517,129.296951 211.989746,94.395874 
	C211.989944,81.143913 211.938782,68.365799 212.012131,55.588394 
	C212.149002,31.745867 231.797562,8.585008 256.555176,5.411050 
	C257.012665,58.621975 257.046295,111.398041 257.079926,164.174103 
	C257.079926,164.174103 257.049438,164.644516 257.019043,164.879089 
	C239.440842,173.921707 225.053986,186.567551 212.372284,201.783936 
z"/>
<path fill="#FCCC36" opacity="1.000000" stroke="none" 
	d="
M182.972198,341.181763 
	C182.941528,321.196472 182.963272,301.516479 183.009491,281.836548 
	C183.013748,280.027008 183.174316,278.217896 183.613708,276.151794 
	C183.977356,297.457550 183.991287,319.020111 183.989975,340.582642 
	C183.989944,341.021545 183.812408,341.460480 183.717697,341.899384 
	C183.488892,341.761932 183.260071,341.624512 182.972198,341.181763 
z"/>
<path fill="#9A0000" opacity="1.000000" stroke="none" 
	d="
M302.169067,198.606354 
	C310.880554,195.236069 319.561188,192.463730 328.124359,189.366486 
	C355.921631,179.312363 383.675781,169.138947 411.446716,159.012054 
	C425.640350,153.836197 439.829590,148.648285 454.034607,143.503891 
	C455.738129,142.886978 457.528259,142.509354 459.672943,142.036255 
	C462.478912,154.342651 461.383453,166.738525 458.612305,178.590393 
	C456.354614,188.246384 451.693298,197.313843 445.113037,205.383636 
	C436.026794,216.526749 425.845398,226.136963 412.536072,231.599258 
	C398.845123,237.218201 384.753418,241.859711 370.845306,246.951355 
	C368.450836,247.827957 366.097321,248.816483 362.991669,249.862762 
	C361.276642,250.096786 360.228027,250.039780 359.322845,250.372681 
	C340.528748,257.284454 321.750885,264.240448 302.969849,271.187714 
	C302.646515,269.985382 302.042816,268.783356 302.041351,267.580627 
	C302.013275,244.738983 302.056244,221.897232 302.169067,198.606354 
z"/>
<path fill="#F7A520" opacity="1.000000" stroke="none" 
	d="
M302.978363,271.604919 
	C321.750885,264.240448 340.528748,257.284454 359.322845,250.372681 
	C360.228027,250.039780 361.276642,250.096786 362.658295,250.031189 
	C362.796509,261.520660 368.519165,270.708954 374.329132,279.815063 
	C383.644135,294.414764 392.821136,309.210938 396.764771,326.226196 
	C399.479187,337.937836 400.324493,350.082672 402.018158,362.487976 
	C401.356445,370.182861 400.904114,377.452484 399.967010,384.659119 
	C396.668243,410.028198 387.317749,433.005402 371.937439,453.440277 
	C368.162659,458.455566 363.726471,462.973022 359.287262,467.850861 
	C361.346100,462.936523 363.716705,457.892853 366.077026,452.844391 
	C372.816376,438.429840 374.143616,423.394928 372.219360,407.688812 
	C368.992676,381.351990 356.797058,359.725677 338.536621,341.141266 
	C335.073730,337.616943 330.860229,334.841736 327.112274,331.583710 
	C315.776398,321.729614 311.046631,308.197845 307.172272,294.405121 
	C305.127716,287.126526 304.341339,279.494537 302.978363,271.604919 
z"/>
<path fill="#FF5C42" opacity="1.000000" stroke="none" 
	d="
M257.448486,164.120697 
	C257.046295,111.398041 257.012665,58.621975 256.960693,5.370052 
	C265.362305,3.950717 273.933716,1.559911 282.164856,2.421072 
	C293.058777,3.560819 299.488495,11.381814 301.655334,22.666552 
	C294.892487,25.120588 288.384369,26.861557 281.999359,28.974529 
	C274.432556,31.478584 269.776611,39.874100 272.337646,46.628807 
	C275.440918,54.813660 283.493164,60.151485 291.504333,57.317131 
	C294.861206,56.129475 298.533051,55.832142 302.061707,55.130035 
	C302.042908,67.751930 302.024139,80.373833 302.019348,93.459595 
	C302.013763,117.330620 301.994171,140.737778 301.934998,164.621140 
	C297.545502,156.843307 291.441345,151.690628 279.546539,155.944397 
	C272.266174,158.547958 265.057739,161.352829 257.448486,164.120697 
z"/>
<path fill="#F69916" opacity="1.000000" stroke="none" 
	d="
M493.891968,365.566772 
	C493.548859,363.897461 493.282349,361.813416 493.031555,359.309814 
	C493.354370,360.977509 493.661469,363.064819 493.891968,365.566772 
z"/>
<path fill="#F69916" opacity="1.000000" stroke="none" 
	d="
M493.387390,383.879456 
	C493.138397,381.949310 493.228455,379.787750 493.569336,377.326233 
	C493.788879,379.233551 493.757660,381.440826 493.387390,383.879456 
z"/>
<path fill="#9A0000" opacity="1.000000" stroke="none" 
	d="
M302.451355,55.066879 
	C298.533051,55.832142 294.861206,56.129475 291.504333,57.317131 
	C283.493164,60.151485 275.440918,54.813660 272.337646,46.628807 
	C269.776611,39.874100 274.432556,31.478584 281.999359,28.974529 
	C288.384369,26.861557 294.892487,25.120588 301.692017,23.048040 
	C309.811615,20.799002 317.194916,17.164022 325.647522,17.930016 
	C333.155701,18.610426 338.699951,25.750183 338.337158,33.181232 
	C337.795410,44.278713 331.751007,46.691010 320.428101,49.989174 
	C314.575409,51.693970 308.703979,53.334282 302.451355,55.066879 
z"/>
</svg>
